<?xml version="1.0"?>

<svg width="100%" height="100%" viewBox="0 0 1658 742" version="1.1" xmlns="http://www.w3.org/2000/svg" xmlns:xlink="http://www.w3.org/1999/xlink" xml:space="preserve" xmlns:serif="http://www.serif.com/" style="fill-rule:evenodd;clip-rule:evenodd;stroke-linejoin:round;stroke-miterlimit:2;fill:#111111;">
    <g transform="matrix(1,0,0,1,-175.654123,-550.244155)">
        <g transform="matrix(2.367804,0,0,2.367804,-426.90859,-1063.362801)">
            <g transform="matrix(1,0,0,1,31.252581,-8.446643)">
                <path d="M310.427,928.689C294.329,928.689 280.076,926.369 267.667,921.73C255.258,917.091 245.224,910.439 237.566,901.775C229.909,893.111 225.13,882.742 223.229,870.669L278.063,864.129C280.076,871.843 283.821,877.74 289.299,881.82C294.776,885.9 302.322,887.941 311.937,887.941C319.986,887.941 326.33,886.515 330.969,883.665C335.609,880.814 337.928,877.041 337.928,872.346C337.928,868.209 336.084,864.828 332.395,862.2C328.706,859.573 323.004,857.533 315.29,856.08L282.759,849.875C264.425,846.41 250.674,840.177 241.507,831.178C232.34,822.179 227.757,810.524 227.757,796.215C227.757,783.918 231.082,773.381 237.734,764.605C244.386,755.83 253.832,749.066 266.074,744.315C278.315,739.564 292.82,734.654 309.589,734.654C325.352,734.654 342.903,737.256 354.641,741.616C366.38,745.976 378.699,753.025 385.686,761.075C392.331,768.729 403.826,780.213 405.358,790.811C405.436,791.357 404.674,791.059 404.762,791.606L345.599,791.221C342.878,789.184 341.692,787.194 336.55,783.56C331.407,779.927 318.588,777.266 310.763,777.266C303.608,777.266 297.683,778.691 292.988,781.542C288.292,784.393 285.945,788.166 285.945,792.861C285.945,796.662 287.482,799.96 290.556,802.755C293.631,805.549 298.969,807.673 306.571,809.127L342.288,815.834C360.846,819.3 374.652,825.141 383.708,833.358C392.763,841.575 397.29,852.446 397.29,865.973C397.29,878.606 393.573,889.618 386.139,899.008C378.705,908.399 368.476,915.693 355.452,920.892C342.428,926.09 327.42,928.689 310.427,928.689Z" style="fill-rule:nonzero;"></path>
            </g>
            <g transform="matrix(1,0,0,1,-2.111661,-1.266997)">
                <path d="M535.591,740.716L536.013,783.048L416.022,783.893L402.507,741.138L535.591,740.716ZM437.368,694.427L495.724,694.427L495.724,867.147C495.724,872.29 496.898,876.035 499.245,878.382C501.593,880.73 505.506,881.904 510.984,881.904C513.219,881.904 516.21,881.708 519.955,881.317C523.7,880.926 533.591,880.14 535.268,879.805L535.224,922.901C529.411,924.354 522.163,925.783 516.014,926.342C509.866,926.9 503.941,927.18 498.239,927.18C478.005,927.18 462.801,922.652 452.628,913.597C442.455,904.542 437.368,891.127 437.368,873.352L437.368,694.427Z" style="fill-rule:nonzero;"></path>
            </g>
            <g transform="matrix(1,0,0,1,-25.762263,-0.422332)">
                <path d="M558.607,995.094L558.607,739.871L616.292,739.871L616.292,770.055L617.969,770.055C620.652,764.242 624.286,758.848 628.869,753.873C633.453,748.898 639.182,744.874 646.057,741.8C652.933,738.725 661.121,737.188 670.624,737.188C684.151,737.188 696.588,740.738 707.935,747.836C719.282,754.935 728.393,765.556 735.268,779.697C742.143,793.839 745.581,811.474 745.581,832.603C745.581,853.173 742.255,870.557 735.603,884.755C728.952,898.952 719.952,909.712 708.605,917.035C697.258,924.357 684.43,928.018 670.121,928.018C661.065,928.018 653.1,926.509 646.225,923.491C639.35,920.472 633.592,916.532 628.953,911.669C624.314,906.806 620.708,901.412 618.137,895.487L616.963,895.487L616.963,995.094L558.607,995.094ZM651.004,882.239C658.494,882.239 664.81,880.171 669.953,876.035C675.095,871.898 679.036,866.113 681.775,858.679C684.514,851.245 685.883,842.497 685.883,832.436C685.883,822.374 684.514,813.654 681.775,806.276C679.036,798.898 675.095,793.168 669.953,789.088C664.81,785.007 658.494,782.967 651.004,782.967C643.626,782.967 637.254,784.98 631.888,789.004C626.521,793.029 622.413,798.73 619.562,806.108C616.712,813.487 615.286,822.262 615.286,832.436C615.286,842.497 616.74,851.245 619.646,858.679C622.553,866.113 626.661,871.898 631.971,876.035C637.282,880.171 643.626,882.239 651.004,882.239Z" style="fill-rule:nonzero;"></path>
            </g>
            <g transform="matrix(1,0,0,1,-57.859508,6.334983)">
                <rect x="775.429" y="675.143" width="58.356" height="249.857" style="fill-rule:nonzero;"></rect>
            </g>
            <g transform="matrix(1,0,0,1,-91.223749,-1.266997)">
                <path d="M957.54,928.689C938.312,928.689 921.654,924.776 907.569,916.951C893.483,909.125 882.667,898.058 875.121,883.748C867.575,869.439 863.802,852.502 863.802,832.939C863.802,813.934 867.575,797.249 875.121,782.883C882.667,768.518 893.343,757.311 907.149,749.262C920.956,741.213 937.082,737.188 955.528,737.188C968.719,737.188 980.821,739.284 991.832,743.476C1002.844,747.669 1012.402,753.817 1020.507,761.922C1028.612,770.027 1034.873,779.921 1039.288,791.603C1043.704,803.286 1045.912,816.673 1045.912,831.765L1045.912,846.689L883.924,846.689L883.924,812.481L1018.243,812.481L991.078,820.362C991.078,811.866 989.736,804.571 987.053,798.479C984.37,792.386 980.457,787.718 975.315,784.476C970.172,781.234 963.8,779.613 956.198,779.613C948.708,779.613 942.336,781.262 937.082,784.56C931.828,787.858 927.831,792.47 925.092,798.395C922.353,804.32 920.984,811.363 920.984,819.524L920.984,844.174C920.984,853.341 922.521,861.082 925.595,867.399C928.669,873.715 933.057,878.466 938.759,881.652C944.46,884.838 951.112,886.431 958.714,886.431C964.08,886.431 968.943,885.677 973.303,884.168C977.663,882.658 981.38,880.479 984.454,877.628C987.528,874.777 989.848,871.284 991.413,867.147L1043.397,873.855C1040.49,884.81 1035.152,894.397 1027.382,902.613C1019.613,910.83 1009.803,917.23 997.953,921.814C986.103,926.397 972.632,928.689 957.54,928.689Z" style="fill-rule:nonzero;"></path>
            </g>
        </g>
    </g>
</svg>